<svg width="21" height="21" viewBox="0 0 21 21" fill="none" xmlns="http://www.w3.org/2000/svg">
<path d="M18.5439 18.1071V7.23911L10.5439 2.43911L2.54395 7.23911V18.1071H6.54395V15.3571C6.54395 14.2962 6.96537 13.2788 7.71552 12.5287C8.46566 11.7785 9.48308 11.3571 10.5439 11.3571C11.6048 11.3571 12.6222 11.7785 13.3724 12.5287C14.1225 13.2788 14.5439 14.2962 14.5439 15.3571V18.1071H18.5439ZM12.5439 20.1071V15.3571C12.5439 14.8267 12.3332 14.318 11.9582 13.9429C11.5831 13.5678 11.0744 13.3571 10.5439 13.3571C10.0135 13.3571 9.5048 13.5678 9.12973 13.9429C8.75466 14.318 8.54395 14.8267 8.54395 15.3571V20.1071H2.54395C2.01351 20.1071 1.5048 19.8964 1.12973 19.5213C0.754659 19.1462 0.543945 18.6375 0.543945 18.1071V7.23911C0.543942 6.89373 0.633376 6.55425 0.803538 6.2537C0.973701 5.95316 1.21879 5.7018 1.51495 5.52411L9.51495 0.724106C9.82578 0.537604 10.1815 0.439087 10.5439 0.439087C10.9064 0.439087 11.2621 0.537604 11.5729 0.724106L19.5729 5.52411C19.8691 5.7018 20.1142 5.95316 20.2844 6.2537C20.4545 6.55425 20.5439 6.89373 20.5439 7.23911V18.1071C20.5439 18.6375 20.3332 19.1462 19.9582 19.5213C19.5831 19.8964 19.0744 20.1071 18.5439 20.1071H12.5439Z" fill="#F34580"/>
</svg>
