<svg width="21" height="21" viewBox="0 0 21 21" fill="none" xmlns="http://www.w3.org/2000/svg">
<path d="M13.543 20.172V15.172C13.543 14.3764 13.2269 13.6133 12.6643 13.0507C12.1017 12.4881 11.3386 12.172 10.543 12.172C9.74732 12.172 8.98426 12.4881 8.42165 13.0507C7.85904 13.6133 7.54297 14.3764 7.54297 15.172V20.172H2.54297C2.01254 20.172 1.50383 19.9613 1.12876 19.5863C0.753682 19.2112 0.542969 18.7025 0.542969 18.172V7.30405C0.542965 6.95868 0.632399 6.61919 0.802562 6.31864C0.972724 6.0181 1.21782 5.76674 1.51397 5.58905L9.51397 0.789048C9.8248 0.602546 10.1805 0.504028 10.543 0.504028C10.9055 0.504028 11.2611 0.602546 11.572 0.789048L19.572 5.58905C19.8681 5.76674 20.1132 6.0181 20.2834 6.31864C20.4535 6.61919 20.543 6.95868 20.543 7.30405V18.172C20.543 18.7025 20.3323 19.2112 19.9572 19.5863C19.5821 19.9613 19.0734 20.172 18.543 20.172H13.543Z" fill="#F34580"/>
</svg>
