<svg width="20" height="21" viewBox="0 0 20 21" fill="none" xmlns="http://www.w3.org/2000/svg">
<path d="M13 2.02956V20.0296C12.4627 20.0297 11.9288 19.9433 11.419 19.7736L8 18.6336V0.563558C8.19662 0.60385 8.39064 0.655944 8.581 0.719558L12.051 1.87656C12.3571 1.9779 12.6776 2.02922 13 2.02856V2.02956ZM15 1.52556L18.662 0.305558C18.8129 0.251347 18.9747 0.23424 19.1337 0.255678C19.2926 0.277117 19.4441 0.336473 19.5753 0.428738C19.7065 0.521003 19.8135 0.643471 19.8875 0.785807C19.9614 0.928143 20 1.08617 20 1.24656V17.2466C20 17.4605 19.9315 17.6687 19.8044 17.8408C19.6773 18.0129 19.4985 18.1397 19.294 18.2026L15 19.6336V1.52556ZM6 0.563558V18.6336L1.338 20.1886C1.18697 20.2428 1.02511 20.2599 0.866084 20.2384C0.707058 20.2169 0.555539 20.1575 0.424325 20.0651C0.293111 19.9727 0.186055 19.8501 0.112201 19.7076C0.0383471 19.5652 -0.000136681 19.407 3.6475e-07 19.2466V3.24656C-4.12556e-05 3.03265 0.0685075 2.82437 0.195579 2.6523C0.322651 2.48023 0.501549 2.35345 0.706 2.29056L5.419 0.718558C5.60938 0.655282 5.8034 0.603522 6 0.563558Z" fill="#F34580"/>
</svg>
