<svg width="20" height="21" viewBox="0 0 20 21" fill="none" xmlns="http://www.w3.org/2000/svg">
<path d="M2 18.5015L5.419 17.3615C5.60936 17.2979 5.80338 17.2458 6 17.2055V3.27553L2 4.60953V18.5015ZM1.338 20.8295C1.18705 20.8837 1.02528 20.9008 0.866332 20.8794C0.707384 20.858 0.555925 20.7986 0.424734 20.7063C0.293543 20.6141 0.186469 20.4916 0.112547 20.3493C0.0386247 20.2069 2.34524e-05 20.0489 1.89416e-08 19.8885V3.88853C-4.16014e-05 3.67462 0.0685072 3.46634 0.195579 3.29427C0.322651 3.1222 0.501549 2.99541 0.706 2.93253L5.419 1.36153C6.44525 1.01948 7.55475 1.01948 8.581 1.36153L12.051 2.51853C12.667 2.72393 13.333 2.72393 13.949 2.51853L18.662 0.947526C18.8129 0.893315 18.9747 0.876207 19.1337 0.897646C19.2926 0.919085 19.4441 0.978441 19.5753 1.07071C19.7065 1.16297 19.8135 1.28544 19.8875 1.42777C19.9614 1.57011 20 1.72814 20 1.88853V17.8885C20 18.1024 19.9315 18.3107 19.8044 18.4828C19.6773 18.6548 19.4985 18.7816 19.294 18.8445L14.581 20.4155C13.5548 20.7576 12.4452 20.7576 11.419 20.4155L7.949 19.2585C7.33301 19.0531 6.66699 19.0531 6.051 19.2585L1.338 20.8295ZM18 17.1685V3.27553L14.581 4.41553C14.3906 4.47914 14.1966 4.53123 14 4.57153V18.5015L18 17.1675V17.1685ZM12 18.5025V4.57153C11.8034 4.53123 11.6094 4.47914 11.419 4.41553L8 3.27553V17.2055C8.19662 17.2458 8.39064 17.2979 8.581 17.3615L12 18.5015V18.5025Z" fill="#F34580"/>
</svg>
