<svg width="21" height="14" viewBox="0 0 21 14" fill="none" xmlns="http://www.w3.org/2000/svg">
<path d="M4.08335 2L9.83035 7.12C10.0135 7.28306 10.2501 7.37316 10.4954 7.37316C10.7406 7.37316 10.9772 7.28306 11.1604 7.12L16.9084 2H4.08335ZM18.4854 3.273L12.4914 8.614C11.9418 9.10374 11.2314 9.37436 10.4954 9.37436C9.75927 9.37436 9.04887 9.10374 8.49935 8.614L2.48535 3.254V12H18.4854V3.273ZM2.48535 0H18.4854C19.0158 0 19.5245 0.210714 19.8996 0.585786C20.2746 0.960859 20.4854 1.46957 20.4854 2V12C20.4854 12.5304 20.2746 13.0391 19.8996 13.4142C19.5245 13.7893 19.0158 14 18.4854 14H2.48535C1.95492 14 1.44621 13.7893 1.07114 13.4142C0.696065 13.0391 0.485352 12.5304 0.485352 12V2C0.485352 1.46957 0.696065 0.960859 1.07114 0.585786C1.44621 0.210714 1.95492 0 2.48535 0V0Z" fill="#F34580"/>
</svg>
