<svg width="19" height="19" viewBox="0 0 19 19" fill="none" xmlns="http://www.w3.org/2000/svg">
<path d="M8.04347 14.5C8.8314 14.5 9.61162 14.3448 10.3396 14.0433C11.0675 13.7418 11.729 13.2998 12.2861 12.7427C12.8433 12.1855 13.2852 11.5241 13.5868 10.7961C13.8883 10.0682 14.0435 9.28795 14.0435 8.50002C14.0435 7.71208 13.8883 6.93187 13.5868 6.20391C13.2852 5.47596 12.8433 4.81453 12.2861 4.25737C11.729 3.70022 11.0675 3.25827 10.3396 2.95674C9.61162 2.65521 8.8314 2.50002 8.04347 2.50002C6.45217 2.50002 4.92605 3.13216 3.80083 4.25737C2.67561 5.38259 2.04347 6.90872 2.04347 8.50002C2.04347 10.0913 2.67561 11.6174 3.80083 12.7427C4.92605 13.8679 6.45217 14.5 8.04347 14.5ZM14.3635 13.406L17.9435 16.986C18.0389 17.0783 18.115 17.1887 18.1673 17.3108C18.2197 17.4328 18.2472 17.564 18.2482 17.6968C18.2493 17.8296 18.2239 17.9613 18.1735 18.0841C18.1231 18.207 18.0488 18.3186 17.9548 18.4124C17.8609 18.5062 17.7492 18.5804 17.6263 18.6306C17.5033 18.6808 17.3716 18.706 17.2389 18.7048C17.1061 18.7035 16.9749 18.6758 16.8529 18.6233C16.7309 18.5708 16.6207 18.4946 16.5285 18.399L12.9485 14.819C11.3409 16.0669 9.31827 16.6552 7.29223 16.4642C5.26619 16.2732 3.38908 15.3173 2.04302 13.7911C0.696969 12.2648 -0.0168433 10.283 0.0468978 8.24894C0.110639 6.21492 0.947141 4.28164 2.38612 2.84266C3.8251 1.40368 5.75837 0.567182 7.7924 0.503441C9.82642 0.4397 11.8083 1.15351 13.3345 2.49957C14.8608 3.84562 15.8167 5.72273 16.0077 7.74877C16.1986 9.77481 15.6103 11.7975 14.3625 13.405L14.3635 13.406Z" fill="#F34580"/>
</svg>
